<?xml version="1.0" encoding="UTF-8" standalone="no"?>
<!DOCTYPE svg PUBLIC "-//W3C//DTD SVG 1.1//EN"
 "http://www.w3.org/Graphics/SVG/1.1/DTD/svg11.dtd">
<!-- Generated by graphviz version 3.0.0 (20220226.1711)
 -->
<!-- Title: dependencies Pages: 1 -->
<svg width="830pt" height="247pt"
 viewBox="0.00 0.00 830.00 246.80" xmlns="http://www.w3.org/2000/svg" xmlns:xlink="http://www.w3.org/1999/xlink">
<g id="graph0" class="graph" transform="scale(1 1) rotate(0) translate(4 242.8)">
<title>dependencies</title>
<polygon fill="white" stroke="transparent" points="-4,4 -4,-242.8 826,-242.8 826,4 -4,4"/>
<text text-anchor="middle" x="411" y="-8.2" font-family="sans-serif" font-size="14.00">dependencies</text>
<g id="clust1" class="cluster">
<title>cluster_AppModule</title>
<polygon fill="none" stroke="black" stroke-dasharray="1,5" points="8,-32.8 8,-230.8 814,-230.8 814,-32.8 8,-32.8"/>
</g>
<g id="clust10" class="cluster">
<title>cluster_AppModule_bootstrap</title>
<polygon fill="none" stroke="black" points="357,-170.8 357,-222.8 481,-222.8 481,-170.8 357,-170.8"/>
</g>
<g id="clust2" class="cluster">
<title>cluster_AppModule_declarations</title>
<polygon fill="none" stroke="black" points="168,-40.8 168,-92.8 806,-92.8 806,-40.8 168,-40.8"/>
</g>
<g id="clust8" class="cluster">
<title>cluster_AppModule_imports</title>
<polygon fill="none" stroke="black" points="16,-40.8 16,-92.8 160,-92.8 160,-40.8 16,-40.8"/>
</g>
<!-- AppComponent -->
<g id="node1" class="node">
<title>AppComponent</title>
<polygon fill="#ffffb3" stroke="black" points="797.94,-84.8 692.06,-84.8 692.06,-48.8 797.94,-48.8 797.94,-84.8"/>
<text text-anchor="middle" x="745" y="-62.6" font-family="Times,serif" font-size="14.00">AppComponent</text>
</g>
<!-- AppModule -->
<g id="node6" class="node">
<title>AppModule</title>
<polygon fill="#8dd3c7" stroke="black" points="460.66,-149.8 457.66,-153.8 436.66,-153.8 433.66,-149.8 377.34,-149.8 377.34,-113.8 460.66,-113.8 460.66,-149.8"/>
<text text-anchor="middle" x="419" y="-127.6" font-family="Times,serif" font-size="14.00">AppModule</text>
</g>
<!-- AppComponent&#45;&gt;AppModule -->
<g id="edge1" class="edge">
<title>AppComponent&#45;&gt;AppModule</title>
<path fill="none" stroke="black" d="M745,-85.08C745,-106.12 745,-137.8 745,-137.8 745,-137.8 470.95,-137.8 470.95,-137.8"/>
<polygon fill="black" stroke="black" points="470.95,-134.3 460.95,-137.8 470.95,-141.3 470.95,-134.3"/>
</g>
<!-- HeaderComponent -->
<g id="node2" class="node">
<title>HeaderComponent</title>
<polygon fill="#ffffb3" stroke="black" points="673.75,-84.8 552.25,-84.8 552.25,-48.8 673.75,-48.8 673.75,-84.8"/>
<text text-anchor="middle" x="613" y="-62.6" font-family="Times,serif" font-size="14.00">HeaderComponent</text>
</g>
<!-- HeaderComponent&#45;&gt;AppModule -->
<g id="edge2" class="edge">
<title>HeaderComponent&#45;&gt;AppModule</title>
<path fill="none" stroke="black" d="M613,-84.82C613,-102.17 613,-125.8 613,-125.8 613,-125.8 471.1,-125.8 471.1,-125.8"/>
<polygon fill="black" stroke="black" points="471.1,-122.3 461.1,-125.8 471.1,-129.3 471.1,-122.3"/>
</g>
<!-- OneComponent -->
<g id="node3" class="node">
<title>OneComponent</title>
<polygon fill="#ffffb3" stroke="black" points="534.16,-84.8 429.84,-84.8 429.84,-48.8 534.16,-48.8 534.16,-84.8"/>
<text text-anchor="middle" x="482" y="-62.6" font-family="Times,serif" font-size="14.00">OneComponent</text>
</g>
<!-- OneComponent&#45;&gt;AppModule -->
<g id="edge3" class="edge">
<title>OneComponent&#45;&gt;AppModule</title>
<path fill="none" stroke="black" d="M445.25,-84.91C445.25,-84.91 445.25,-103.79 445.25,-103.79"/>
<polygon fill="black" stroke="black" points="441.75,-103.79 445.25,-113.79 448.75,-103.79 441.75,-103.79"/>
</g>
<!-- TodoComponent -->
<g id="node4" class="node">
<title>TodoComponent</title>
<polygon fill="#ffffb3" stroke="black" points="411.38,-84.8 300.62,-84.8 300.62,-48.8 411.38,-48.8 411.38,-84.8"/>
<text text-anchor="middle" x="356" y="-62.6" font-family="Times,serif" font-size="14.00">TodoComponent</text>
</g>
<!-- TodoComponent&#45;&gt;AppModule -->
<g id="edge4" class="edge">
<title>TodoComponent&#45;&gt;AppModule</title>
<path fill="none" stroke="black" d="M394.31,-84.91C394.31,-84.91 394.31,-103.79 394.31,-103.79"/>
<polygon fill="black" stroke="black" points="390.81,-103.79 394.31,-113.79 397.81,-103.79 390.81,-103.79"/>
</g>
<!-- TwoComponent -->
<g id="node5" class="node">
<title>TwoComponent</title>
<polygon fill="#ffffb3" stroke="black" points="282.49,-84.8 175.51,-84.8 175.51,-48.8 282.49,-48.8 282.49,-84.8"/>
<text text-anchor="middle" x="229" y="-62.6" font-family="Times,serif" font-size="14.00">TwoComponent</text>
</g>
<!-- TwoComponent&#45;&gt;AppModule -->
<g id="edge5" class="edge">
<title>TwoComponent&#45;&gt;AppModule</title>
<path fill="none" stroke="black" d="M229,-84.82C229,-102.17 229,-125.8 229,-125.8 229,-125.8 367.3,-125.8 367.3,-125.8"/>
<polygon fill="black" stroke="black" points="367.3,-129.3 377.3,-125.8 367.3,-122.3 367.3,-129.3"/>
</g>
<!-- AppComponent  -->
<g id="node8" class="node">
<title>AppComponent </title>
<polygon fill="#80b1d3" stroke="black" points="473.44,-214.8 364.56,-214.8 364.56,-178.8 473.44,-178.8 473.44,-214.8"/>
<text text-anchor="middle" x="419" y="-192.6" font-family="Times,serif" font-size="14.00">AppComponent </text>
</g>
<!-- AppModule&#45;&gt;AppComponent  -->
<g id="edge7" class="edge">
<title>AppModule&#45;&gt;AppComponent </title>
<path fill="none" stroke="black" stroke-dasharray="1,5" d="M419,-149.91C419,-149.91 419,-168.79 419,-168.79"/>
<polygon fill="black" stroke="black" points="415.5,-168.79 419,-178.79 422.5,-168.79 415.5,-168.79"/>
</g>
<!-- AppRoutingModule -->
<g id="node7" class="node">
<title>AppRoutingModule</title>
<polygon fill="#8dd3c7" stroke="black" points="152.28,-84.8 149.28,-88.8 128.28,-88.8 125.28,-84.8 23.72,-84.8 23.72,-48.8 152.28,-48.8 152.28,-84.8"/>
<text text-anchor="middle" x="88" y="-62.6" font-family="Times,serif" font-size="14.00">AppRoutingModule</text>
</g>
<!-- AppRoutingModule&#45;&gt;AppModule -->
<g id="edge6" class="edge">
<title>AppRoutingModule&#45;&gt;AppModule</title>
<path fill="none" stroke="black" d="M88,-85.08C88,-106.12 88,-137.8 88,-137.8 88,-137.8 367.08,-137.8 367.08,-137.8"/>
<polygon fill="black" stroke="black" points="367.08,-141.3 377.08,-137.8 367.08,-134.3 367.08,-141.3"/>
</g>
</g>
</svg>
